<svg width="30" height="31" viewBox="0 0 30 31" fill="none" xmlns="http://www.w3.org/2000/svg">
<path d="M18.4622 7.58491C14.639 7.58491 6.98056 4.48556 6.98056 0.662109H6.92395C6.92395 3.72222 8.13954 6.657 10.3033 8.82086C12.4671 10.9847 15.4018 12.2004 18.462 12.2006C20.298 12.2006 22.0589 12.9299 23.3573 14.2282C24.6557 15.5265 25.385 17.2874 25.385 19.1235C25.3855 20.9596 24.6564 22.7208 23.3583 24.0193C22.0602 25.3179 20.2995 26.0476 18.4634 26.048C16.6272 26.0483 14.8661 25.3192 13.5676 24.0211C12.269 22.7231 11.5392 20.9623 11.5389 19.1262C11.5388 17.6109 11.2403 16.1105 10.6604 14.7107C10.0805 13.3108 9.23057 12.0388 8.15909 10.9673C7.0876 9.89593 5.81558 9.04605 4.41564 8.46623C3.0157 7.88642 1.51526 7.58802 0 7.58808V7.64425C3.82273 7.64425 6.92209 15.2994 6.92352 19.1234H6.9228C6.92278 21.4055 7.59946 23.6363 8.86727 25.5338C10.1351 27.4313 11.9371 28.9103 14.0455 29.7836C16.1538 30.657 18.4738 30.8857 20.7121 30.4404C22.9503 29.9953 25.0063 28.8964 26.6201 27.2829C28.2337 25.6693 29.3328 23.6134 29.7782 21.3751C30.2235 19.1369 29.9951 16.817 29.1219 14.7085C28.2487 12.6001 26.7699 10.7979 24.8726 9.52995C22.9751 8.26196 20.7443 7.58508 18.4622 7.58491Z" fill="url(#paint0_linear_2_4501)"/>
<defs>
<linearGradient id="paint0_linear_2_4501" x1="23.91" y1="26.6121" x2="6.47999" y2="2.67211" gradientUnits="userSpaceOnUse">
<stop offset="0.295" stop-color="#E73959"/>
<stop offset="0.384" stop-color="#E73D58"/>
<stop offset="0.477" stop-color="#E74955"/>
<stop offset="0.571" stop-color="#E95E51"/>
<stop offset="0.666" stop-color="#EA7B4B"/>
<stop offset="0.761" stop-color="#EDA044"/>
<stop offset="0.857" stop-color="#EFCE3B"/>
<stop offset="0.868" stop-color="#F0D43A"/>
</linearGradient>
</defs>
</svg>
